# xmcd
#
# Track frame offsets:
#	150
#	17646
#	28984
#	45035
#	57920
#	71816
#	85941
#	99285
#	112778
#	129203
#	142332
#	157016
#	167361
#	182538
#	197580
#	210112
#
# Disc length: 2962 seconds
#
# Revision: 0
# Processed by: cddbd v1.5.1PL0 Copyright (c) Steve Scherf et al.
# Submitted via: dBpowerAMP V4.0
#
DISCID=c60b9010
DTITLE=Grupo Garrafão - A Quebradeira
DYEAR=2004
DGENRE=Regional
TTITLE0=Lá vem ela
TTITLE1=Dodói de Amor
TTITLE2=Pout Pourri do Garrafão
TTITLE3=Me Leva
TTITLE4=A Quebradeira
TTITLE5=Quando ela chega
TTITLE6=Como era bom te namorar
TTITLE7=O Garrafão
TTITLE8=Improviso do Garrafão
TTITLE9=Mete o pé na bunda dele
TTITLE10=Desce e pinga
TTITLE11=Feito em Casa
TTITLE12=Meu Sonho
TTITLE13=Paixão de Estudante
TTITLE14=Chuva Cai
TTITLE15=Na palma da mão
EXTD=
EXTT0=
EXTT1=
EXTT2=
EXTT3=
EXTT4=
EXTT5=
EXTT6=
EXTT7=
EXTT8=
EXTT9=
EXTT10=
EXTT11=
EXTT12=
EXTT13=
EXTT14=
EXTT15=
PLAYORDER=
